<svg id="Слой_1" data-name="Слой 1" height="40" xmlns="http://www.w3.org/2000/svg" viewBox="0 0 384.82 638.57"><defs><style>.cls-1{fill:#e71d73;}</style></defs><path class="cls-1" d="M363.93,162.25c12.45,9.89,32.09,9.83,46.07.18,12.25-8.45,19.61-28.08,12.91-41.23C414.66,105,404.1,102,402.62,101.28a41.64,41.64,0,0,0-22.94-2.76c-8.19,1.29-13.92,6.31-14.81,7C342.32,122,348.91,150.34,363.93,162.25Z" transform="translate(-102.17 -98)"/><path class="cls-1" d="M350.39,451.91c15.84,16.51,36.34,19.81,58.46,14.79S442.5,447.05,445.78,427s2.21-40.26-1.11-60.24c-3.66-22.07-8.14-44-12.26-66-.49-2.29-11.19-64.76-18.5-85.17a37,37,0,0,0-7-11.34c-1-1-4.29-3-4.65-3.42l.1,0c-9.26-5.43-21.26-4.65-27.32,2.21a47.79,47.79,0,0,0-4.66,6.16c-3.82,7.17-4.76,15.13-6.68,22.74C358.33,253,334.94,400,337,418.49,338.34,430.66,341.35,442.49,350.39,451.91Z" transform="translate(-102.17 -98)"/><path class="cls-1" d="M473.85,522.83a19.07,19.07,0,0,0-4.91-9.43c-7-7.8-15.5-4.4-18.35,3.51-1.88,5.23-1.68,10.39-.83,15.69.18,1.77,5.7,51,3.58,71.16-1.86,17.67-1.33,37.77-14.3,50.4-7.4,7.2-13.46,8.11-16.12,8.7h0a47.12,47.12,0,0,1-15,.06c-4.41-.81-7.93-2.42-12.23-4.7a23.32,23.32,0,0,1-5.09-4.39c-.4-.51-.79-1-1.18-1.55a55.19,55.19,0,0,1-6.87-18.6c-3.21-17.67-1-35.08,2.21-52.39s2.38-34.23-4.42-50.54l-.84-1.52A41.14,41.14,0,0,0,366.1,515.6a53.46,53.46,0,0,0-24.84-6.82c-13.53-.62-26.28,2.17-36.89,12.07C296.42,527,292,535.3,289.8,545.46c-4,18.12-4.34,36.47-3.48,54.83,1.38,29.78,6.21,58.88,20.9,84.79,30.34,53.54,84.69,62.64,129.41,38.82,28.28-15.06,41.65-43.68,47.34-75.6C491.57,605.71,483.53,564.08,473.85,522.83Z" transform="translate(-102.17 -98)"/><path class="cls-1" d="M257.12,395.54c-9.62-3.47-18.8-.3-24.36,8.49-.59.93-1.69,2.52-2.32,3.43-1.67,2.44-2.8,4.68-5.17,6.6-6.47,5.24-13.7,6.85-22.1,3.18-10.37-4.53-16.61-11.92-19.44-22.68a63.38,63.38,0,0,1-.51-29.93c2.33-10.83,6.13-21.21,9.67-31.68,4.39-13,8.15-26.21,8.82-40a50.84,50.84,0,0,0-10.53-34.56,33.61,33.61,0,0,0-14.79-11.76c-7.43-3-15.3-4.24-23.21-4.91-5.32-.45-14.8.92-14.48.85-5.18.9-15.74,4-22.76,13.24-6.86,9.07-10,18.48-11.67,29.58-1.48,9.6-1.61,19.32-1.89,29-.7,23.69.22,47.27,5.05,70.56,3.21,15.49,7.5,30.61,15.92,44.2,9.88,15.94,22.86,28.33,41.18,33.89a133.68,133.68,0,0,0,52.06,5.18c7.24-.7,14.47-1.39,21.63-2.65,8.92-1.56,17.59-3.92,25.54-8.39,2.3-1.3,7.44-6.79,8.07-7.73,7.82-11.82,7.87-24.32,2.78-37C271.36,404.29,265.82,398.19,257.12,395.54Z" transform="translate(-102.17 -98)"/><path class="cls-1" d="M257.12,663.25c-9.62-3.47-18.8-.3-24.36,8.49-.59.94-1.69,2.53-2.32,3.44-1.67,2.43-2.8,4.67-5.17,6.59-6.47,5.24-13.7,6.85-22.1,3.19-10.37-4.53-16.61-11.92-19.44-22.69a63.34,63.34,0,0,1-.51-29.92c2.33-10.84,6.13-21.22,9.67-31.68,4.39-13,8.15-26.21,8.82-40a50.85,50.85,0,0,0-10.53-34.56,33.61,33.61,0,0,0-14.79-11.76c-7.43-3-15.3-4.24-23.21-4.91-5.32-.45-14.8.93-14.48.85-5.18.9-15.74,4-22.76,13.25-6.86,9.06-10,18.47-11.67,29.58-1.48,9.59-1.61,19.32-1.89,29-.7,23.68.22,47.26,5.05,70.56,3.21,15.48,7.5,30.6,15.92,44.2,9.88,15.94,22.86,28.32,41.18,33.88a133.68,133.68,0,0,0,52.06,5.18c7.24-.7,14.47-1.38,21.63-2.64,8.92-1.57,17.59-3.93,25.54-8.4,2.3-1.29,7.44-6.78,8.07-7.73,7.82-11.82,7.87-24.31,2.78-37C271.36,672,265.82,665.9,257.12,663.25Z" transform="translate(-102.17 -98)"/></svg>