<?xml version="1.0" encoding="utf-8"?>
<!-- Generator: Adobe Illustrator 26.0.3, SVG Export Plug-In . SVG Version: 6.00 Build 0)  -->
<svg version="1.1" id="Layer_1" xmlns="http://www.w3.org/2000/svg" xmlns:xlink="http://www.w3.org/1999/xlink" x="0px" y="0px"
	 viewBox="0 0 512 512" style="enable-background:new 0 0 512 512;" xml:space="preserve">
<style type="text/css">
	.st0{fill-rule:evenodd;clip-rule:evenodd;}
	.st1{fill:#5B57A2;}
	.st2{fill:#D90751;}
	.st3{fill:#FAB718;}
	.st4{fill:#ED6F26;}
	.st5{fill:#63B22F;}
	.st6{fill:#1487C9;}
	.st7{fill:#017F36;}
	.st8{fill:#984995;}
</style>
<path id="path60" d="M206.7,50.6v29.3h-10.5V59.3h-10.1v20.6h-10.5V50.6L206.7,50.6L206.7,50.6z"/>
<path id="path62" class="st0" d="M154.1,80.9c9.4,0,16.3-5.8,16.3-14.5c0-8.4-5.1-13.9-13.7-13.9c-4,0-7.2,1.4-9.7,3.8
	c0.6-5,4.8-8.6,9.4-8.6c1.1,0,9.1,0,9.1,0l4.6-8.7c0,0-10.1,0.2-14.8,0.2c-10.7,0.2-18,9.9-18,21.8
	C137.3,74.9,144.4,80.9,154.1,80.9z M154.2,60.3c3.5,0,5.9,2.3,5.9,6.2c0,3.5-2.1,6.4-5.9,6.4c-3.6,0-6-2.7-6-6.4
	C148.2,62.6,150.6,60.3,154.2,60.3z"/>
<path id="path64" d="M128.8,70.1c0,0-2.5,1.4-6.2,1.7c-4.2,0.1-8-2.6-8-7.3c0-4.7,3.3-7.3,7.9-7.3c2.8,0,6.5,1.9,6.5,1.9
	s2.7-5,4.1-7.5c-2.6-2-6-3-10-3c-10.1,0-17.9,6.6-17.9,15.8c0,9.4,7.3,15.8,17.9,15.6c3-0.1,7-1.1,9.5-2.7L128.8,70.1z"/>
<path id="path66" class="st1" d="M0,26.1l14.5,26v15.8L0,93.9L0,26.1z"/>
<path id="path68" class="st2" d="M55.8,42.6l13.6-8.3l27.9,0L55.8,59.7C55.8,59.7,55.8,42.6,55.8,42.6z"/>
<path id="path70" class="st3" d="M55.7,26l0.1,34.4l-14.6-9V0L55.7,26L55.7,26z"/>
<path id="path72" class="st4" d="M97.3,34.3l-27.9,0L55.7,26L41.2,0L97.3,34.3L97.3,34.3z"/>
<path id="path74" class="st5" d="M55.8,94V77.3l-14.6-8.8l0,51.5L55.8,94z"/>
<path id="path76" class="st6" d="M69.4,85.7L14.5,52.1L0,26.1l97.2,59.6L69.4,85.7L69.4,85.7z"/>
<path id="path78" class="st7" d="M41.2,120l14.6-26l13.6-8.3l27.8,0L41.2,120z"/>
<path id="path80" class="st8" d="M0,93.9l41.3-25.3L27.5,60l-12.9,7.9L0,93.9z"/>
</svg>
